<svg xmlns="http://www.w3.org/2000/svg" width="18.775" height="19.161" viewBox="0 0 18.775 19.161"><defs><style>.a{fill:#39db88;}</style></defs><g transform="translate(0 -1.501)"><path class="a" d="M15.962,92.537a.84.84,0,0,0-.84.84V100.1a.841.841,0,0,1-.84.84H2.52a.841.841,0,0,1-.84-.84V88.337a.841.841,0,0,1,.84-.84H9.241a.84.84,0,0,0,0-1.68H2.52A2.523,2.523,0,0,0,0,88.337V100.1a2.523,2.523,0,0,0,2.52,2.52H14.282a2.523,2.523,0,0,0,2.52-2.52V93.377A.839.839,0,0,0,15.962,92.537Zm0,0" transform="translate(0 -81.956)"/><path class="a" d="M182.289,72.717a.285.285,0,0,0-.077.144l-.4,1.991a.281.281,0,0,0,.277.337.268.268,0,0,0,.055-.006l1.991-.4a.28.28,0,0,0,.144-.077l4.455-4.455-1.991-1.991Zm0,0" transform="translate(-171.649 -65.092)"/><path class="a" d="M394.37.936a1.487,1.487,0,0,0-2.1,0l-.823.823,2.1,2.1.823-.823a1.486,1.486,0,0,0,0-2.1Zm0,0" transform="translate(-376.031 1)"/></g></svg>