<svg xmlns="http://www.w3.org/2000/svg" width="1031.866" height="629.266" viewBox="0 0 1031.866 629.266"><defs><style>.a{fill:rgba(93,204,150,0.12);}.b{fill:#aed3ff;}.c{fill:#d2e4ff;}.d{fill:#f3f9ff;}.e{fill:#ee9849;}.f{fill:#a6c7f9;}.g{fill:#c65447;}.h{fill:#e57970;}.i{fill:rgba(75,112,154,0.29);}.j{fill:#5dcc96;}.k{fill:#012841;}.l{fill:#ebf2f9;}.m{fill:#a8d29f;}.n{fill:#f1a34f;}.o{fill:#82b378;}.p{fill:#dd8936;}.q{fill:#163560;}.r{fill:#1c468a;}.s{fill:#ffb27d;}.t{fill:#e58638;}.u{fill:#4b709a;}.v{fill:#4a75cb;}.w{fill:#fca56b;}.x{fill:#e37970;}.y{fill:#d68d5d;}.z{fill:#80bdcc;}.aa{fill:#e7f1fd;}.ab{fill:#5f9aa8;}.ac{fill:#c45446;}.ad{fill:#e49963;}.ae{fill:#2b478b;}.af{fill:#739af0;}.ag{fill:#202f4e;}</style></defs><g transform="translate(-356 -121.286)"><path class="a" d="M1368.949,424.953c-41.143-40.979-90.746-288.1-260.666-159.393-87.791,66.5-235.822-57.087-358.35-14.4C637.407,290.361,626.56,419.522,637.45,461.612,659.443,546.626,591,559.28,527.512,595.8c-99.593,57.3-26.356,258.658,67.729,259.619s664.079-1.919,664.079-1.919,136.679.4,193.517-87.672C1514,671.053,1475.224,530.8,1368.949,424.953Z" transform="translate(-94.049 -107.484)"/><g transform="translate(366.278 173.122)"><g transform="translate(494.782 46.334)"><rect class="b" width="177.417" height="298.09" transform="translate(182.978 298.09) rotate(180)"/><rect class="c" width="177.417" height="298.09" transform="translate(0 0.001)"/><rect class="d" width="153.673" height="103.83" transform="translate(12.082 16.652)"/><rect class="d" width="82.476" height="55.436" transform="translate(80.63 217.918)"/><path class="e" d="M2713.47,623.419s26.238-3.27,42.27,11.5,45.9,1.309,57.928,0c20.909-2.276,37.3,4.566,42.164,12.084v22.559H2713.47Z" transform="translate(-2695.053 -553.773)"/><rect class="f" width="1.098" height="35.227" transform="translate(38.755 33.343)"/><rect class="f" width="1.098" height="35.227" transform="translate(81.905 48.458)"/><rect class="f" width="1.098" height="35.227" transform="translate(126.426 40.488)"/><path class="f" d="M2820.9,494.433h-8.427a.919.919,0,0,1-.917-.917h0a.919.919,0,0,1,.917-.917h8.427a.919.919,0,0,1,.917.917h0A.922.922,0,0,1,2820.9,494.433Z" transform="translate(-2768.773 -455.687)"/><path class="f" d="M2820.9,507.714h-8.427a.919.919,0,0,1-.917-.917h0a.919.919,0,0,1,.917-.917h8.427a.919.919,0,0,1,.917.917h0A.922.922,0,0,1,2820.9,507.714Z" transform="translate(-2768.773 -465.668)"/><path class="f" d="M2991.994,566.7h-8.427a.919.919,0,0,1-.917-.917h0a.919.919,0,0,1,.917-.917h8.427a.919.919,0,0,1,.917.917h0A.918.918,0,0,1,2991.994,566.7Z" transform="translate(-2897.356 -510.002)"/><path class="f" d="M2991.994,579.714h-8.427a.919.919,0,0,1-.917-.917h0a.919.919,0,0,1,.917-.917h8.427a.919.919,0,0,1,.917.917h0A.919.919,0,0,1,2991.994,579.714Z" transform="translate(-2897.356 -519.78)"/><path class="f" d="M3174.144,513.244h-8.427a.919.919,0,0,1-.917-.917h0a.919.919,0,0,1,.917-.917h8.427a.919.919,0,0,1,.917.917h0A.919.919,0,0,1,3174.144,513.244Z" transform="translate(-3034.252 -469.824)"/><path class="f" d="M3174.144,526.243h-8.427a.919.919,0,0,1-.917-.917h0a.919.919,0,0,1,.917-.917h8.427a.919.919,0,0,1,.917.917h0A.919.919,0,0,1,3174.144,526.243Z" transform="translate(-3034.252 -479.594)"/><g transform="translate(135.408 131.869)"><path class="d" d="M3184.36,889.973a15.173,15.173,0,1,1,15.173,15.173A15.172,15.172,0,0,1,3184.36,889.973Z" transform="translate(-3184.36 -874.8)"/><path class="g" d="M3230.925,893.858a13.886,13.886,0,0,1-23.274,10.233l9.386-10.233V879.97A13.887,13.887,0,0,1,3230.925,893.858Z" transform="translate(-3201.864 -878.685)"/><path class="f" d="M3207.8,923.495h-4.986a.42.42,0,0,1-.417-.417h0a.42.42,0,0,1,.417-.417h4.986a.42.42,0,0,1,.417.417h0A.418.418,0,0,1,3207.8,923.495Z" transform="translate(-3197.918 -910.769)"/></g><g transform="translate(97.736 131.869)"><circle class="d" cx="15.173" cy="15.173" r="15.173"/><path class="h" d="M3051.8,893.858l8.534,10.956a13.889,13.889,0,1,1,5.294-12.226Z" transform="translate(-3036.623 -878.685)"/><path class="f" d="M3125.088,947.165h-3.47a.42.42,0,0,1-.417-.417h0a.42.42,0,0,1,.417-.417h3.47a.42.42,0,0,1,.417.417h0A.42.42,0,0,1,3125.088,947.165Z" transform="translate(-3099.22 -928.559)"/></g><g transform="translate(135.408 173.66)"><path class="d" d="M3184.36,1058.183a15.173,15.173,0,1,1,15.173,15.172A15.172,15.172,0,0,1,3184.36,1058.183Z" transform="translate(-3184.36 -1043.01)"/><path class="e" d="M3230.925,1062.068a13.886,13.886,0,0,1-23.274,10.234l9.386-10.234V1048.18A13.889,13.889,0,0,1,3230.925,1062.068Z" transform="translate(-3201.864 -1046.895)"/><path class="f" d="M3207.8,1091.715h-4.986a.42.42,0,0,1-.417-.417h0a.42.42,0,0,1,.417-.417h4.986a.42.42,0,0,1,.417.417h0A.42.42,0,0,1,3207.8,1091.715Z" transform="translate(-3197.918 -1078.987)"/></g><g transform="translate(97.736 173.66)"><path class="d" d="M3032.73,1058.183a15.172,15.172,0,1,1,15.173,15.172A15.172,15.172,0,0,1,3032.73,1058.183Z" transform="translate(-3032.73 -1043.01)"/><path class="g" d="M3065.626,1060.809a13.882,13.882,0,1,0-5.294,12.229l-8.534-10.957Z" transform="translate(-3036.623 -1046.903)"/><path class="f" d="M3125.088,1115.375h-3.47a.42.42,0,0,1-.417-.417h0a.42.42,0,0,1,.417-.417h3.47a.42.42,0,0,1,.417.417h0A.418.418,0,0,1,3125.088,1115.375Z" transform="translate(-3099.22 -1096.769)"/></g><g transform="translate(83.848 224.75)"><path class="f" d="M3052.534,1293.38h-75.7v-44.73h.942v43.788h74.762Z" transform="translate(-2976.83 -1248.65)"/></g><g transform="translate(88.389 226.576)"><path class="f" d="M3014.233,1303.11c-9.267-7.376-19.123,0-19.123,0v12.611h69.282v-32.6C3045.564,1283.6,3023.5,1310.486,3014.233,1303.11Z" transform="translate(-2995.11 -1276.382)"/><path class="f" d="M2995.913,1257.585H3028.2a.793.793,0,0,0,0-1.585h-32.283a.793.793,0,0,0,0,1.585Z" transform="translate(-2995.117 -1256)"/><path class="f" d="M2995.913,1273.185H3028.2a.793.793,0,0,0,0-1.585h-32.283a.793.793,0,0,0,0,1.585Z" transform="translate(-2995.117 -1267.724)"/><path class="f" d="M2995.768,1287.915h21.376a.651.651,0,0,0,.649-.648v-.288a.649.649,0,0,0-.649-.648h-21.376a.65.65,0,0,0-.648.648v.288A.649.649,0,0,0,2995.768,1287.915Z" transform="translate(-2995.117 -1278.795)"/></g></g><g transform="translate(222.672 0)"><rect class="i" width="242.754" height="366.099"/><rect class="d" width="195.445" height="217.847" transform="translate(23.456 20.479)"/><circle class="d" cx="35.15" cy="35.15" r="35.15" transform="translate(13.046 307.926) rotate(-45)"/><path class="j" d="M1736.533,1307.054a29.71,29.71,0,1,0-11.689,23.625l-18.02-23.625,27.764,10.6A29.637,29.637,0,0,0,1736.533,1307.054Z" transform="translate(-1644.062 -999.128)"/><circle class="d" cx="35.15" cy="35.15" r="35.15" transform="translate(140.246 334.1) rotate(-76.714)"/><path class="k" d="M2188.854,1277.34a29.713,29.713,0,0,0-21.177,50.556l21.175-20.842,27.764,10.6a29.733,29.733,0,0,0-27.761-40.31Z" transform="translate(-2006.334 -999.128)"/><g transform="translate(164.625 292.84)"><path class="c" d="M2220.262,1336.22h-12.648a.907.907,0,0,0-.9.9h0a.907.907,0,0,0,.9.9h12.648a.908.908,0,0,0,.9-.9h0A.908.908,0,0,0,2220.262,1336.22Z" transform="translate(-2206.71 -1336.22)"/><path class="c" d="M2220.262,1347.74h-12.648a.9.9,0,0,0,0,1.809h12.648a.9.9,0,1,0,0-1.809Z" transform="translate(-2206.71 -1344.878)"/><path class="c" d="M2212.847,1359.25h-5.223a.9.9,0,0,0,0,1.809h5.223a.9.9,0,0,0,0-1.809Z" transform="translate(-2206.717 -1353.528)"/></g><g transform="translate(44.623 292.84)"><path class="l" d="M1737.253,1336.22H1724.6a.908.908,0,0,0-.9.9h0a.908.908,0,0,0,.9.9h12.649a.908.908,0,0,0,.9-.9h0A.909.909,0,0,0,1737.253,1336.22Z" transform="translate(-1723.7 -1336.22)"/><path class="l" d="M1737.253,1347.74H1724.6a.9.9,0,0,0,0,1.809h12.649a.9.9,0,0,0,0-1.809Z" transform="translate(-1723.7 -1344.878)"/><path class="l" d="M1729.827,1359.25H1724.6a.9.9,0,0,0,0,1.809h5.223a.9.9,0,0,0,0-1.809Z" transform="translate(-1723.7 -1353.528)"/></g><g transform="translate(40.859 62.521)"><rect class="f" width="20.623" height="128.476" transform="translate(0 35.811)"/><rect class="f" width="20.623" height="164.287" transform="translate(33.789)"/><rect class="f" width="20.623" height="97.406" transform="translate(70.655 66.879)"/><rect class="f" width="20.623" height="142.354" transform="translate(106.531 21.933)"/><rect class="f" width="20.623" height="78.34" transform="translate(142.593 85.945)"/></g><g transform="translate(75.793 37.953)"><path class="f" d="M2158.122,422.91h-17.466a1.806,1.806,0,1,0,0,3.612h17.466a1.806,1.806,0,1,0,0-3.612Z" transform="translate(-2066.877 -394.93)"/><path class="f" d="M2144.634,449.38h-3.978a1.806,1.806,0,1,0,0,3.612h3.978a1.806,1.806,0,0,0,0-3.612Z" transform="translate(-2066.877 -414.824)"/><path class="f" d="M1868.432,310.29h-17.466a1.806,1.806,0,0,0,0,3.612h17.466a1.806,1.806,0,1,0,0-3.612Z" transform="translate(-1849.16 -310.29)"/><path class="f" d="M1854.944,336.76h-3.978a1.811,1.811,0,0,0-1.806,1.806h0a1.811,1.811,0,0,0,1.806,1.806h3.978a1.811,1.811,0,0,0,1.806-1.806h0A1.811,1.811,0,0,0,1854.944,336.76Z" transform="translate(-1849.16 -330.184)"/><path class="f" d="M2011.3,601.19h-17.466a1.806,1.806,0,1,0,0,3.612H2011.3a1.806,1.806,0,1,0,0-3.612Z" transform="translate(-1956.535 -528.917)"/><path class="f" d="M1997.814,627.66h-3.978a1.811,1.811,0,0,0-1.806,1.806h0a1.811,1.811,0,0,0,1.806,1.806h3.978a1.811,1.811,0,0,0,1.806-1.806h0A1.811,1.811,0,0,0,1997.814,627.66Z" transform="translate(-1956.535 -548.811)"/><path class="f" d="M2300.852,678.37h-17.466a1.806,1.806,0,0,0,0,3.612h17.466a1.806,1.806,0,1,0,0-3.612Z" transform="translate(-2174.147 -586.922)"/><path class="f" d="M2287.364,704.84h-3.978a1.806,1.806,0,1,0,0,3.612h3.978a1.806,1.806,0,1,0,0-3.612Z" transform="translate(-2174.147 -606.816)"/></g></g><g transform="translate(12.497 138.772)"><rect class="b" width="177.417" height="99.88"/><rect class="c" width="177.417" height="99.88" transform="translate(5.769)"/><circle class="d" cx="32.079" cy="32.079" r="32.079" transform="translate(8.921 47.685) rotate(-45)"/><g transform="translate(106.6 29.764)"><path class="d" d="M1183.843,835.89H1130.7a3.511,3.511,0,0,0-3.5,3.5h0a3.511,3.511,0,0,0,3.5,3.5h53.142a3.511,3.511,0,0,0,3.5-3.5h0A3.511,3.511,0,0,0,1183.843,835.89Z" transform="translate(-1127.2 -835.89)"/><path class="d" d="M1183.843,893.93H1130.7a3.511,3.511,0,0,0-3.5,3.5h0a3.511,3.511,0,0,0,3.5,3.5h53.142a3.511,3.511,0,0,0,3.5-3.5h0A3.511,3.511,0,0,0,1183.843,893.93Z" transform="translate(-1127.2 -879.51)"/><path class="d" d="M1183.843,951.96H1130.7a3.5,3.5,0,1,0,0,7h53.142a3.5,3.5,0,0,0,0-7Z" transform="translate(-1127.2 -923.123)"/></g><path class="m" d="M798.44,817.3h29.371V787.93A29.372,29.372,0,0,0,798.44,817.3Z" transform="translate(-773.518 -770.082)"/><path class="n" d="M857.18,909.95H798.44a29.371,29.371,0,0,0,29.371,29.371h0A29.371,29.371,0,0,0,857.18,909.95Z" transform="translate(-773.518 -861.786)"/><g transform="translate(31.627 32.119)"><path class="o" d="M843.02,845.37H827.08a1.65,1.65,0,1,0,0,3.3h15.94a1.65,1.65,0,1,0,0-3.3Z" transform="translate(-825.43 -845.37)"/><path class="o" d="M830.719,869.52h-3.63a1.65,1.65,0,0,0,0,3.3h3.63a1.65,1.65,0,1,0,0-3.3Z" transform="translate(-825.438 -863.52)"/></g><g transform="translate(55.294 55.344)"><path class="p" d="M938.28,938.85H922.34a1.65,1.65,0,0,0,0,3.3h15.94a1.65,1.65,0,0,0,0-3.3Z" transform="translate(-920.69 -938.85)"/><path class="p" d="M925.969,963h-3.63a1.655,1.655,0,0,0-1.65,1.65h0a1.655,1.655,0,0,0,1.65,1.65h3.63a1.655,1.655,0,0,0,1.65-1.65h0A1.655,1.655,0,0,0,925.969,963Z" transform="translate(-920.69 -957)"/></g></g><g transform="translate(0 256.54)"><path class="b" d="M647.83,1190.11v102.148H825.247V1190.11Z" transform="translate(-647.83 -1190.11)"/><path class="c" d="M671.05,1190.11v102.148H848.467V1190.11Z" transform="translate(-665.281 -1190.11)"/><circle class="d" cx="32.079" cy="32.079" r="32.079" transform="translate(22.211 15.841)"/><g transform="translate(106.598 30.002)"><path class="d" d="M1080.391,1317.871h53.143a3.5,3.5,0,0,0,0-7h-53.143a3.5,3.5,0,0,0,0,7Z" transform="translate(-1076.89 -1310.87)"/><path class="d" d="M1133.533,1368.89h-53.143a3.5,3.5,0,0,0,0,7h53.143a3.5,3.5,0,0,0,0-7Z" transform="translate(-1076.89 -1354.475)"/><path class="d" d="M1133.533,1426.93h-53.143a3.511,3.511,0,0,0-3.5,3.5h0a3.511,3.511,0,0,0,3.5,3.5h53.143a3.511,3.511,0,0,0,3.5-3.5h0A3.509,3.509,0,0,0,1133.533,1426.93Z" transform="translate(-1076.89 -1398.095)"/></g><path class="n" d="M777.5,1383.953l-29.369-.373c0,.124,0,.251,0,.373a29.374,29.374,0,0,0,45.13,24.787Z" transform="translate(-723.211 -1335.513)"/><g transform="translate(37.781 57.689)"><path class="p" d="M817.49,1422.31H801.55a1.655,1.655,0,0,0-1.65,1.65h0a1.655,1.655,0,0,0,1.65,1.65h15.94a1.655,1.655,0,0,0,1.65-1.65h0A1.654,1.654,0,0,0,817.49,1422.31Z" transform="translate(-799.9 -1422.31)"/><path class="p" d="M805.189,1446.46h-3.63a1.65,1.65,0,1,0,0,3.3h3.63a1.65,1.65,0,0,0,0-3.3Z" transform="translate(-799.907 -1440.46)"/></g></g><g transform="translate(0 29.841)"><rect class="b" width="177.42" height="92.563"/><rect class="c" width="177.417" height="92.563" transform="translate(5.769)"/><circle class="d" cx="32.079" cy="32.079" r="32.079" transform="translate(8.922 47.643) rotate(-45)"/><path class="m" d="M777.5,351.19a29.372,29.372,0,0,0-14.1,55.14c4.706-8.715,14.1-25.771,14.1-25.771l13.905,25.873A29.373,29.373,0,0,0,777.5,351.19Z" transform="translate(-723.211 -332.917)"/><g transform="translate(106.598 29.722)"><path class="d" d="M1133.533,397.27h-53.143a3.511,3.511,0,0,0-3.5,3.5h0a3.511,3.511,0,0,0,3.5,3.5h53.143a3.511,3.511,0,0,0,3.5-3.5h0A3.509,3.509,0,0,0,1133.533,397.27Z" transform="translate(-1076.89 -397.27)"/><path class="d" d="M1133.533,455.31h-53.143a3.5,3.5,0,0,0,0,7h53.143a3.5,3.5,0,0,0,0-7Z" transform="translate(-1076.89 -440.89)"/><path class="d" d="M1133.533,513.34h-53.143a3.5,3.5,0,0,0,0,7h53.143a3.5,3.5,0,0,0,0-7Z" transform="translate(-1076.89 -484.503)"/></g><g transform="translate(37.784 33.615)"><path class="o" d="M817.5,412.94H801.56a1.65,1.65,0,1,0,0,3.3H817.5a1.65,1.65,0,0,0,0-3.3Z" transform="translate(-799.91 -412.94)"/><path class="o" d="M805.189,437.09h-3.63a1.655,1.655,0,0,0-1.65,1.65h0a1.655,1.655,0,0,0,1.65,1.65h3.63a1.655,1.655,0,0,0,1.65-1.65h0A1.655,1.655,0,0,0,805.189,437.09Z" transform="translate(-799.91 -431.09)"/></g></g></g><g transform="translate(637.892 491.292)"><path class="q" d="M1550.8,921.06s19.8,20.444,20.756,28.154-9.422,19.769-9.422,19.769Z" transform="translate(-1505.533 -886.767)"/><path class="q" d="M1429.589,1801.921s-.673,10.868-2.777,11.025c-.281.021-10.666.021-10.666.021l-13.257-.076s.086-3.2,3.961-3.871,10.361-3.4,12.71-8.521C1422.031,1795.112,1429.589,1801.921,1429.589,1801.921Z" transform="translate(-1392.789 -1555.539)"/><path class="q" d="M1553.66,1801.921s-.673,10.868-2.777,11.025c-.281.021-10.666.021-10.666.021l-13.3-.047s.126-3.224,4-3.9,10.361-3.4,12.71-8.521C1546.1,1795.112,1553.66,1801.921,1553.66,1801.921Z" transform="translate(-1487.331 -1555.539)"/><path class="q" d="M1453.43,1269.619s3.467,22.175,16.4,61.542,14.7,56.413,14.7,56.413a57.1,57.1,0,0,0,7.194.506,45.561,45.561,0,0,0,6.681-.9s.119-43.023-5.844-62.818-1.286-71.365-1.286-71.365Z" transform="translate(-1431.313 -1139.788)"/><path class="r" d="M1425,1258.12a538.11,538.11,0,0,0,5.29,74.449c5.782,41.031,3.823,58.448,3.823,58.448s4.76.854,6.431.908c1.79.06,7.415-.447,7.415-.447s8.276-41.047,5.9-61.584,11.334-70.471,11.334-70.471Z" transform="translate(-1409.632 -1143.69)"/><path class="s" d="M1486.59,876.221l-6.531,4.838-9.439-1.988c.131-.861.754-4.429,1.322-7.66.033-.19.069-.38.1-.568.485-2.751.906-5.112.906-5.112l8.816-4.394,3.288-1.638c-.01.057-.254,3.053-.29,3.488A28.217,28.217,0,0,0,1486.59,876.221Z" transform="translate(-1444.416 -839.995)"/><path class="t" d="M1459.708,908.019c.207-.088,12.841-3.816,14.213-3.362s2.185,3.11,2.185,3.11l-20.665,4.672S1457.069,909.131,1459.708,908.019Z" transform="translate(-1432.845 -874.234)"/><path class="u" d="M1462.919,1002.529c-2.142,9.769-37.781,10.927-46.967,2.059-1.046-1.01-1.1-5.713-.7-12.054.77-12.389,3.245-31.024,3.343-40.543a75.184,75.184,0,0,1,1.522-13.571,110.282,110.282,0,0,1,4.52-16.243s17.408-5.628,20.665-4.669C1460.991,922.118,1465.061,992.76,1462.919,1002.529Z" transform="translate(-1402.037 -883.975)"/><path class="v" d="M1415.98,1054.012c.771-12.389,3.245-31.024,3.343-40.544a75.219,75.219,0,0,1,1.522-13.571l10.47-1.847S1441.552,1039.868,1415.98,1054.012Z" transform="translate(-1402.766 -945.452)"/><path class="s" d="M1430.272,1155.582a2.464,2.464,0,0,1-.785,2.851c-1.5,1.144-2.47,3-2.128,4.358s3.63,3.569,4.771,3.212,3.459-2.142,3.21-2.858,1.56-6.279-1.217-8.419S1430.272,1155.582,1430.272,1155.582Z" transform="translate(-1411.388 -1064.291)"/><path class="q" d="M1391,926.96s-10.214,1.911-18.35,13.9-13.49,20.908-11.992,25.23,15.164,19.312,17.517,19.312,6.158-1.714,6.372-5.568c0,0-9.619-14.417-7.724-16.578.811-.922,12.489-10.4,14.158-6.122C1393.733,964.225,1391,926.96,1391,926.96Z" transform="translate(-1360.403 -891.264)"/><path class="w" d="M1488.329,868.573c-1.936,3.7-9.151,6.909-12.159,8.086.033-.19.069-.38.1-.568.485-2.751.906-5.112.906-5.112l8.816-4.394C1487.941,866.555,1489.127,867.049,1488.329,868.573Z" transform="translate(-1448.646 -845.242)"/><path class="s" d="M1463.227,817.045s13.05,4.07,15.461-4.1,5.718-13.141-2.513-16.086-10.777-.309-12.244,2.221S1459.894,815.776,1463.227,817.045Z" transform="translate(-1437.536 -791.106)"/><path class="q" d="M1469.637,784.01s.832,9.5,2.8,9.092,3.747-.718,3.459,2.147-3.012,6.172,3.043,6.678,14.764-15.114,13.1-18.071C1487.238,775.323,1462.7,773.6,1469.637,784.01Z" transform="translate(-1442.732 -776.818)"/></g><g transform="translate(356 539.427)"><path class="s" d="M485.25,1735.91l3.3,13.914,4.948-.028.182-13.887Z" transform="translate(-457.525 -1551.52)"/><path class="s" d="M695.81,1731.481l9.4,13.322,3.665-4.7-5.658-10.448Z" transform="translate(-626.462 -1546.497)"/><path class="q" d="M389.911,804.685a9.585,9.585,0,0,0-5.187-.992,2.422,2.422,0,0,1,1.093-.52,8.035,8.035,0,0,0-2.87.749c-12.351-4.76-14.292,13.426-14.033,17.653s-4.151,5.6-10.576,8.933C346.077,836.859,345,845.365,345,845.365c.095.055.2.12.3.194.609-1.03,1.86-2.965,2.916-3.258a43.841,43.841,0,0,0-1.7,4.137c3.618,2.752,10.384,8.848,15.1,13.172a6.915,6.915,0,0,1,.32-2.677l.583,3.509c2.524,2.321,4.264,3.952,4.264,3.952-.312-3.414,15.441-21.432,23.66-26.827,2-2.945,2.712-8.148,2.766-8.557a22.484,22.484,0,0,1-1.682,7.743C398.49,830.342,394.438,807.259,389.911,804.685Z" transform="translate(-345 -803.134)"/><path class="s" d="M525.213,929.269c.042.018-3.967,2.1-6.984,1.275-2.837-.773-4.691-4.452-4.651-4.46,1.2-.239,1.548-1.89,1.522-8.985l.544.107,9.133,1.809s-.208,2.874-.213,5.581C524.555,926.871,524.693,929.026,525.213,929.269Z" transform="translate(-480.253 -894.571)"/><path class="x" d="M520.2,817.1a7.3,7.3,0,0,1,10.161-.245S527.069,816.282,520.2,817.1Z" transform="translate(-485.567 -812.567)"/><path class="y" d="M533.171,919.449s-.208,2.874-.214,5.581c-5.11-.144-7.81-4.806-8.917-7.389Z" transform="translate(-488.647 -895.004)"/><path class="q" d="M505.463,836.462a26.858,26.858,0,0,1-3.321-7.85c-.459-2.584.856-12.157,10.479-10.779a13.051,13.051,0,0,1,5.42,2.05c2.089,1.411,5.1,4.458,1.734,12.812l-.876,2.823Z" transform="translate(-471.016 -814.819)"/><path class="z" d="M543.949,1338.9l-4.841.148-5.24.16a103.461,103.461,0,0,1-18.892-35.076c-.158-.5-.324-1.01-.5-1.524-3.716-10.833-11.418-24.431-15.476-36.741-.646-1.961-1.226-3.805-1.747-5.553-.166-.559-.33-1.109-.484-1.651a130.59,130.59,0,0,1-4.655-24.508l29.31.235A546.813,546.813,0,0,0,543.949,1338.9Z" transform="translate(-463.029 -1148.955)"/><path class="aa" d="M466.357,995.964c-.073,13.946,2.046,19.93,2.046,19.93a39.386,39.386,0,0,1-27.464,1.682c-.176-.056-12.349-2.833-12.349-2.833.249-.565,2.469-9.963,2.712-10.481,3.149-6.763,5.539-9.728,5.913-11.805a44.232,44.232,0,0,0,.362-11.685,93.692,93.692,0,0,0-3.617-18.351,96.409,96.409,0,0,0,12.2-4.092c.973,1.212,3.841,2.435,6.423,2.378,2.971-.065,3.9-1.322,3.789-2.738,3.167,1.761,5.683,3.438,5.683,3.438,2.69,4.673,8.148,9.212,8.544,16.382C470.7,979.553,466.359,995.573,466.357,995.964Z" transform="translate(-412.066 -927.362)"/><path class="ab" d="M452.158,1059.662c-1.281,1.813-3.738,12.835-9.848,14.221,3.149-7.856,5.539-11.3,5.913-13.715a59.588,59.588,0,0,0,.362-13.573c2.046-3.586,3.572-6.043,3.572-6.043.16-.579,3.252-10.135,4.242-1.593S453.59,1057.634,452.158,1059.662Z" transform="translate(-423.074 -989.507)"/><path class="s" d="M529.208,856.957s-12.09.2-12.1-7.332-1.573-12.578,6.144-13.023,9.222,2.426,9.836,4.94S532.353,856.712,529.208,856.957Z" transform="translate(-482.979 -829.949)"/><path class="q" d="M516.953,830.577c-1.866-2.261-3.278-1.769-4.068-1.091-2.613-3.9-10.87,1.742-10.87,1.742a14.387,14.387,0,0,1-4.7,8.5s2.2,1.362,7.284.055c4-1.028,6.9-6.719,7.955-9.1a9.578,9.578,0,0,1,2.69,3.562c.6,1.918.874,5.865,2.024,5.731C517.262,839.981,519.756,833.975,516.953,830.577Z" transform="translate(-467.201 -823.173)"/><path class="s" d="M498.248,1802.36a13.391,13.391,0,0,1-.631,5.7s-.811,3.691,2.825,3.758,4.527-.275,4.114-2.536-1.194-6.176-1.194-6.176Z" transform="translate(-467.386 -1604.834)"/><path class="ac" d="M503.613,1836.405l-.012.008h-7.52l-.012-.008a19.408,19.408,0,0,1,.261-5.567c4.116,3.934,6.691-.1,6.691-.1C503.69,1832.422,503.613,1836.405,503.613,1836.405Z" transform="translate(-466.099 -1627.603)"/><path class="s" d="M750.431,1793.894s-6.7-7.609-8.759-11.394l-4.982,2.552,11.137,10.459,2.605-.342Z" transform="translate(-659.261 -1588.899)"/><path class="ac" d="M749.2,1807.949h-9.3a15.161,15.161,0,0,1-2.556-4.173,4.5,4.5,0,0,0-3.034-2.07v6.243h-1.924l-1.781-6.638c-1.186-2.224-.295-4.264.54-6.021.971,0,3.786.7,8.735,6.387a6.437,6.437,0,0,0,5.207,2.479.453.453,0,0,0,.073.04C747.987,1805.488,748.906,1807.078,749.2,1807.949Z" transform="translate(-653.925 -1599.161)"/><path class="x" d="M619.645,966.862s-7.937,4.438-10.772,5.717c-1.008.455-2.835,1.3-4.7,2.176-1.127.526-2.267,1.062-3.254,1.526a4.09,4.09,0,0,1-4.847-1.046c-4.3-5.017-15.419-15.893-26.9-17.257l-.039-.018.006.012-.014,0,.063.125c.646,1.605,6.943,17.336,7.136,20.655.206,3.5.822,57.191.822,57.191s-.411,2.469,4.319,1.439,5.966-2.058,5.966-2.058-4.527-33.121-3.291-44.642a25.576,25.576,0,0,0-.482-7.425,59.048,59.048,0,0,0,15.243,6.122,69.375,69.375,0,0,0,7.856-4.3,49.357,49.357,0,0,0,6.624-5.329,97.167,97.167,0,0,0,7.53-8.666Z" transform="translate(-524.816 -927.354)"/><path class="ab" d="M558,1425.23l-5.24.16a103.46,103.46,0,0,1-18.892-35.076c-.158-.5-.324-1.01-.5-1.524-3.716-10.833-11.418-24.431-15.476-36.741-.646-1.961-1.226-3.805-1.747-5.553-.166-.56-.33-1.109-.484-1.651l4.315-3.276s12.958,20.984,16.971,40.73C540.435,1399.457,554.391,1420.1,558,1425.23Z" transform="translate(-481.924 -1235.133)"/><path class="z" d="M448.684,1361.549c.073,9.6-.411,31.68-1.662,40.821H442.38c-2.566,0-3.845-.037-3.845-.037-3.137-15.891-5.369-29.041-6.994-40.372-1.332-9.3-2.518-17.271-3.43-24.133-.917-6.907-1.556-12.689-1.783-17.576-.036-.769-.061-1.518-.077-2.244s-.018-1.439-.012-2.129l25.325-2.469C451.246,1330.237,448.642,1355.968,448.684,1361.549Z" transform="translate(-410.178 -1212.539)"/><path class="ab" d="M442.762,1430.148c-2.566,0-3.845-.037-3.845-.037-3.137-15.892-5.369-29.041-6.994-40.372-1.332-9.3-2.518-17.271-3.43-24.133-.917-6.907-1.556-12.689-1.783-17.576L436,1353.5s-5.93,2.091-3.669,17.933S439.611,1427.9,442.762,1430.148Z" transform="translate(-410.558 -1240.315)"/><path class="x" d="M421,1036.373s-1.783,6.444-7.955,5.622-14.949-4.527-14.949-4.527,2.637-8.334,5.917-19.282c3.971-13.254,8.886-30.342,11.2-41.119a66.552,66.552,0,0,0,1.259-7.348l5.227-9.939s7.528,17.139,7.939,21.458S421,1036.373,421,1036.373Z" transform="translate(-387.603 -928.814)"/><path class="s" d="M535.432,1091.643c-2.971.39-4.11,1.969-4.476,4.1a9.073,9.073,0,0,1-1.293,3.088c-2.959.158-10,.542-15.925.917l-.488,7.765a88.645,88.645,0,0,0,17.718-4.193,4.655,4.655,0,0,0,2.016-1.1c4.262-3.491,6.682-9.336,6.69-10.172S538.4,1091.254,535.432,1091.643Z" transform="translate(-479.991 -1034.396)"/><path class="ac" d="M444.742,1060.463c-.275,6.994-1.921,20.573-16.6,27.841-.039.018-.079.04-.117.055,3.971-13.254,8.886-30.342,11.2-41.119C441.925,1051.267,444.892,1056.61,444.742,1060.463Z" transform="translate(-411.617 -998.985)"/><path class="x" d="M443.529,959.78s-12.553.89-15.569,7.611-3.977,29.075-.136,35.657c0,0,5.288,1.506,14.638-.243l.346-.065s2.983-7.3.308-8.743c0,0-7.885.411-7.063-2.194S443.529,959.78,443.529,959.78Z" transform="translate(-409.429 -928.814)"/><g transform="translate(79.356 34.149)"><path class="s" d="M833.437,975.969a7.546,7.546,0,0,0-8.457,5.274l1.261,4.218c2.082.287,3.9-.255,5.582-2.657s2.141-1.479,3.208-3.268C836.475,977.114,834.212,976.212,833.437,975.969Z" transform="translate(-809.454 -975.885)"/><path class="s" d="M751.141,1008.707c-1.008.455-2.835,1.3-4.7,2.176,1,1.773,2.248,5,2.58,10.321a43.11,43.11,0,0,0,6.822-5.5,90.594,90.594,0,0,0,7.332-8.5l-1.261-4.219S753.976,1007.428,751.141,1008.707Z" transform="translate(-746.44 -997.632)"/></g></g><g transform="translate(932.604 436.241)"><g transform="translate(24.803 53.211)"><path class="ad" d="M2522.083,1279.44s-7.7,1.977-12.589.5-13.315.947-14.671,2.731-.858,2.494,1.562,3.108,11,4.271,16.629,2.155,12.985-2.193,12.985-2.193Z" transform="translate(-2494.082 -1203.996)"/><path class="v" d="M2636.553,1049.922s-8.647,61.458-22.966,66.962c-7.066,2.715-38.289,8.872-47.522,9.49,0,0-2.262-1.834-1.711-9.306,0,0,32.712-12.009,37.361-18.539,6.917-9.721-4.293-39.709,4.385-48.841S2629.392,1036.633,2636.553,1049.922Z" transform="translate(-2542.028 -1041.342)"/></g><path class="ae" d="M2696.467,1604.916v-13.4h21.1a1.038,1.038,0,0,0,1.036-1.036v-2.148a1.039,1.039,0,0,0-1.036-1.036h-21.1v-76.274a3.9,3.9,0,0,0-3.891-3.891H2688.4a3.9,3.9,0,0,0-3.891,3.891V1587.3h-21.1a1.038,1.038,0,0,0-1.036,1.036v2.148a1.038,1.038,0,0,0,1.036,1.036h21.1v13.4c-15.263,1.153-27.491,6.648-30.922,13.749h73.8C2723.961,1611.564,2711.73,1606.069,2696.467,1604.916Z" transform="translate(-2578.246 -1306.33)"/><path class="q" d="M2595.664,1399.248a107.764,107.764,0,0,1-8.447,12.085c-9.293,11.733-19.411,21.407-21.172,30.548a41.344,41.344,0,0,1-1.635,5.852c-.735,2.094-1.645,4.3-2.7,6.575-3.945,8.568-9.842,18.165-15.729,26.892-10.178,15.083-19.75,27.668-19.75,27.668l-17.554-.748c.7-1.759,8.359-22.586,18.6-48.036,4.16-10.333,8.581-21.322,12.849-31.92.567-1.416,1.137-2.827,1.7-4.221,1.306-3.245,2.589-6.435,3.84-9.544l17.275-42.928s38.435-14.56,42.427-5.127C2608.668,1374.124,2605.988,1381.744,2595.664,1399.248Z" transform="translate(-2479.252 -1207.982)"/><path class="q" d="M2485.644,1802.885s-.9,14.484-3.7,14.693c-.374.028-14.214.028-14.214.028l-17.668-.1s.117-4.259,5.279-5.158,13.809-4.528,16.939-11.356C2475.567,1793.81,2485.644,1802.885,2485.644,1802.885Z" transform="translate(-2439.206 -1505.189)"/><path class="q" d="M2670.821,1682.33s12.209,7.845,11.024,10.393c-.158.339-6.9,12.424-6.9,12.424l-8.7,15.377s-3.66-2.177-1.93-7.126,2.776-14.265-1.657-20.323C2657.986,1686.7,2670.821,1682.33,2670.821,1682.33Z" transform="translate(-2583.738 -1426.016)"/><path class="r" d="M2522.23,1367.56s-48.245,30.051-53.632,50.247,64.177,63.28,64.177,63.28,7.63-6.733,8.977-11.67c0,0-31.445-37.671-38.264-46.116-4.189-5.187,61.937-17.953,70.016-30.52s5.187-23.14,5.187-23.14Z" transform="translate(-2451.667 -1210.984)"/><path class="e" d="M2705.24,1489.35H2606.5a3.6,3.6,0,0,0-3.59,3.59v19.747a3.6,3.6,0,0,0,3.59,3.59h98.74a3.6,3.6,0,0,0,3.59-3.59V1492.94A3.6,3.6,0,0,0,2705.24,1489.35Z" transform="translate(-2543.624 -1294.184)"/><path class="ad" d="M2693.061,981.783a27.2,27.2,0,0,0-7.351,6.66c11.559,2.991,30.719-7.722,30.719-7.722s-7.44-5-10.2-15.982q-.209-.832-.38-1.7a34.466,34.466,0,0,1-.624-6.014l-5.311,4.756-8.828,7.912a75.52,75.52,0,0,0,1.305,8.926C2692.589,979.6,2692.808,980.658,2693.061,981.783Z" transform="translate(-2600.188 -930.528)"/><path class="af" d="M2692.967,1077.448c-1.654,22.266,1.128,56.119-.748,61.984-1.623,5.06-20.7,2.066-28.067.374-2.728-.624-6.033-1.518-9.446-2.573-9.522-2.947-19.9-7.158-21.008-10.282a2.438,2.438,0,0,1-.1-.358,2.9,2.9,0,0,1,.019-1.309c.371-1.594,1.8-3.318,1.968-7.259.187-4.4.158-9.588.326-15.165.01-.627.016-1.312.085-1.939l0-.228c0-.121.006-.238.009-.358.159-6.22.485-12.757.862-19.243.241-4.072.517-8.105.836-11.971.831-9.975,1.949-18.844,3.432-24.452,2.421-9.141,7.757-15.1,12.614-19.474l3.514-3.013a20.311,20.311,0,0,0,12.747-1.7c4.538-2.155,6.106-3.7,6.9-3.118C2687.387,1025.451,2694.922,1050.227,2692.967,1077.448Z" transform="translate(-2564.543 -971.668)"/><path class="v" d="M2655.019,1281.36c-9.522-2.947-19.9-7.158-21.008-10.282a2.554,2.554,0,0,1-.1-.358c.007-.437.013-.874.019-1.309.371-1.594,1.8-3.318,1.968-7.259.187-4.4.158-9.588.326-15.165.01-.627.016-1.312.086-1.939l0-.228c0-.12.007-.238.01-.358l35.963-16.312S2674.354,1257.133,2655.019,1281.36Z" transform="translate(-2564.801 -1115.747)"/><path class="y" d="M2702.69,979.942a75.43,75.43,0,0,0,1.305,8.926c8.622-2.785,12.532-10.574,13.837-13.875.371-.932.532-1.511.532-1.511s-.336-.073-.913-.193l-5.935-1.258Z" transform="translate(-2611.788 -940.781)"/><path class="ad" d="M2682.028,928.823s18.942,2.136,20.089-9.68,4.367-19.5-7.677-21.363-14.835,2.418-16.179,6.267S2677.129,927.964,2682.028,928.823Z" transform="translate(-2594.615 -889.751)"/><path class="ae" d="M2700.12,903.619s-1.2-15.685-18.441-17.31c-11.81-1.112-5.225-11.277-3.968-12.9,0,0,9.047,1.242,18.321,2.773C2715.5,879.4,2702.03,901.176,2700.12,903.619Z" transform="translate(-2592.7 -873.41)"/><g transform="translate(0 100.686)"><rect class="v" width="1.743" height="45.647" transform="translate(0 0.539) rotate(-17.998)"/><rect class="v" width="47.9" height="2.864" transform="matrix(1, -0.021, 0.021, 1, 14.06, 41.022)"/></g><g transform="translate(29.454 57.156)"><path class="ad" d="M2536.071,1309.26s-7.433,2.814-12.459,1.888-13.127,2.408-14.281,4.332-.58,2.573,1.895,2.918,11.4,3.036,16.765.311,12.662-3.612,12.662-3.612Z" transform="translate(-2508.761 -1228.313)"/><path class="af" d="M2641.6,1060.95s-1.819,62.035-15.444,69.085c-6.72,3.479-37.076,13.039-46.188,14.674,0,0-2.452-1.575-2.728-9.062,0,0,31.188-15.542,35.089-22.548,5.8-10.424-8.647-39-1.027-49.024S2633.02,1048.532,2641.6,1060.95Z" transform="translate(-2555.542 -1053.793)"/></g></g><path class="ag" d="M1278.752,1861.285H375.1a.921.921,0,0,1-.882-.947h0a.921.921,0,0,1,.882-.948h903.65a.921.921,0,0,1,.881.948h0A.921.921,0,0,1,1278.752,1861.285Z" transform="translate(-17.862 -1110.733)"/></g></svg>