<svg xmlns="http://www.w3.org/2000/svg" width="17" height="24.667" viewBox="0 0 17 24.667"><defs><style>.a{fill:#5dcc96;}</style></defs><path class="a" d="M216.338,280.741l.3,2.679a.472.472,0,0,1-.469.524h-1.889a.472.472,0,0,1-.469-.524l.3-2.679a1.868,1.868,0,0,1-.773-1.519,1.889,1.889,0,0,1,3.778,0A1.868,1.868,0,0,1,216.338,280.741Zm-1.116-2.464a.941.941,0,0,0-.408,1.791.473.473,0,0,1,.264.477L214.805,283h.834l-.273-2.454a.473.473,0,0,1,.264-.477.941.941,0,0,0-.408-1.791Z" transform="translate(-206.722 -263.055)"/><path class="a" d="M64.472,8.5h1.417V4.611a6.611,6.611,0,1,1,13.222,0v.472c0,.261-.414.784-.675.784H76.665c-.261,0-.388-.523-.388-.784V4.611a3.778,3.778,0,1,0-7.556,0V8.5H80.528A.472.472,0,0,1,81,8.972V20.778a1.891,1.891,0,0,1-1.889,1.889H65.889A1.891,1.891,0,0,1,64,20.778V8.972A.472.472,0,0,1,64.472,8.5ZM72.5-.111a4.728,4.728,0,0,1,4.722,4.722h.944a5.667,5.667,0,1,0-11.333,0V8.5h.944V4.611A4.728,4.728,0,0,1,72.5-.111ZM64.944,20.778a.946.946,0,0,0,.944.944H79.111a.946.946,0,0,0,.944-.944V9.445H64.944Z" transform="translate(-64 2)"/></svg>