<svg xmlns="http://www.w3.org/2000/svg" width="17.381" height="23.175" viewBox="0 0 17.381 23.175"><defs><style>.a{fill:#5dcc96;}</style></defs><g transform="translate(-64)"><g transform="translate(64)"><path class="a" d="M214.123,280.817l-.3,2.739a.483.483,0,0,0,.48.536h1.931a.483.483,0,0,0,.48-.536l-.3-2.739a1.91,1.91,0,0,0,.79-1.553,1.931,1.931,0,1,0-3.863,0A1.91,1.91,0,0,0,214.123,280.817Zm1.141-2.519a.962.962,0,0,1,.417,1.831.483.483,0,0,0-.27.488l.279,2.509h-.852l.279-2.509a.483.483,0,0,0-.27-.488.962.962,0,0,1,.417-1.831Z" transform="translate(-206.574 -264.78)"/><path class="a" d="M80.9,8.691H79.45V6.759a6.759,6.759,0,0,0-13.519,0V8.691H64.483A.483.483,0,0,0,64,9.173v12.07a1.933,1.933,0,0,0,1.931,1.931H79.45a1.933,1.933,0,0,0,1.931-1.931V9.173A.483.483,0,0,0,80.9,8.691Zm-14-1.931a5.794,5.794,0,1,1,11.587,0V8.691h-.966V6.759a4.828,4.828,0,1,0-9.656,0V8.691H66.9Zm9.656,0V8.691H68.828V6.759a3.862,3.862,0,0,1,7.725,0Zm3.862,14.484a.967.967,0,0,1-.966.966H65.931a.967.967,0,0,1-.966-.966V9.656h15.45Z" transform="translate(-64 0)"/></g></g></svg>