<svg xmlns="http://www.w3.org/2000/svg" width="18.442" height="18.442" viewBox="0 0 18.442 18.442"><defs><style>.a{fill:#5dcc96;}</style></defs><g transform="translate(-1 -1)"><path class="a" d="M17.955,1h-2.38a1.494,1.494,0,0,0-1.19.595l-.446.595H9.031A1.489,1.489,0,0,0,7.544,3.677V7.544H1.892A.893.893,0,0,0,1,8.436v.595a.89.89,0,0,0,.624.847L2.657,18.14a1.49,1.49,0,0,0,1.476,1.3H9.766a1.489,1.489,0,0,0,1.476-1.3l.878-7.026h5.835a1.489,1.489,0,0,0,1.487-1.487V2.487A1.489,1.489,0,0,0,17.955,1ZM9.031,2.785h5.206l.625-.833a.9.9,0,0,1,.714-.357h2.38a.893.893,0,0,1,.892.892V3.38H8.194a.891.891,0,0,1,.838-.595ZM1.595,8.436a.3.3,0,0,1,.3-.3H12.006a.3.3,0,0,1,.3.3v.595a.3.3,0,0,1-.3.3H1.892a.3.3,0,0,1-.3-.3Zm.858,3.275c.011,0,.023,0,.035,0h.595a.893.893,0,0,1,.892.892V16.17a.892.892,0,0,1-.853.889Zm7.313,7.136H4.133a.894.894,0,0,1-.886-.782l-.052-.419A1.485,1.485,0,0,0,4.569,16.17V12.6a1.489,1.489,0,0,0-1.487-1.487H2.487c-.036,0-.072.006-.108.009l-.15-1.2h9.44l-.15,1.2c-.036,0-.073-.009-.108-.009h-.595A1.489,1.489,0,0,0,9.329,12.6V16.17A1.485,1.485,0,0,0,10.7,17.646l-.052.419a.894.894,0,0,1-.886.782Zm1.011-1.789a.892.892,0,0,1-.853-.889V12.6a.893.893,0,0,1,.892-.892h.595c.011,0,.023,0,.035,0Zm7.178-6.54H12.194l.08-.641a.89.89,0,0,0,.624-.847V8.436a.893.893,0,0,0-.892-.892H8.139V3.975H18.847V9.626A.893.893,0,0,1,17.955,10.519Z"/><path class="a" d="M57,5h.595v.595H57Z" transform="translate(-39.342 -2.81)"/><path class="a" d="M53,5h.595v.595H53Z" transform="translate(-36.532 -2.81)"/><path class="a" d="M49,5h.595v.595H49Z" transform="translate(-33.722 -2.81)"/><path class="a" d="M57,29h.595v.595H57Z" transform="translate(-39.342 -19.671)"/><path class="a" d="M53,29h.595v.595H53Z" transform="translate(-36.532 -19.671)"/><path class="a" d="M49,29h.595v.595H49Z" transform="translate(-33.722 -19.671)"/><path class="a" d="M17.082,35h-.595A1.489,1.489,0,0,0,15,36.487v3.569a1.489,1.489,0,0,0,1.487,1.487h.595a1.489,1.489,0,0,0,1.487-1.487V36.487A1.489,1.489,0,0,0,17.082,35Zm.892,5.057a.893.893,0,0,1-.892.892h-.595a.893.893,0,0,1-.892-.892V36.487a.893.893,0,0,1,.892-.892h.595a.893.893,0,0,1,.892.892Z" transform="translate(-9.836 -23.886)"/><path class="a" d="M8.595,7.883a.893.893,0,0,1,.892-.892h1.364l-.682.682.421.421,1.4-1.4-1.4-1.4-.421.421.682.682H9.487A1.489,1.489,0,0,0,8,7.883v.892h.595Z" transform="translate(-4.918 -3.016)"/><path class="a" d="M8,19h.595v.595H8Z" transform="translate(-4.918 -12.646)"/><path class="a" d="M42.981,41.892a.893.893,0,0,1-.892.892H40.725l.682-.682-.421-.421-1.4,1.4,1.4,1.4.421-.421-.682-.682h1.364a1.489,1.489,0,0,0,1.487-1.487V41h-.595Z" transform="translate(-27.108 -28.102)"/><path class="a" d="M51,37h.595v.595H51Z" transform="translate(-35.127 -25.292)"/></g></svg>