<svg xmlns="http://www.w3.org/2000/svg" width="21.576" height="21.577" viewBox="0 0 21.576 21.577"><defs><style>.a{fill:#5dcc96;}</style></defs><path class="a" d="M8.478,19.082H2.248A2.25,2.25,0,0,1,0,16.834V4.248A2.25,2.25,0,0,1,2.248,2H13.036a2.25,2.25,0,0,1,2.248,2.248v6.581a.45.45,0,0,1-.9,0V4.248A1.35,1.35,0,0,0,13.036,2.9H2.248A1.35,1.35,0,0,0,.9,4.248V16.834a1.35,1.35,0,0,0,1.349,1.349h6.23a.45.45,0,0,1,0,.9Z" transform="translate(0 -0.202)"/><path class="a" d="M3.45,4.5A.45.45,0,0,1,3,4.046V.45a.45.45,0,0,1,.9,0v3.6A.45.45,0,0,1,3.45,4.5Z" transform="translate(-0.303)"/><path class="a" d="M8.45,4.5A.45.45,0,0,1,8,4.046V.45a.45.45,0,0,1,.9,0v3.6A.45.45,0,0,1,8.45,4.5Z" transform="translate(-0.808)"/><path class="a" d="M13.45,4.5a.45.45,0,0,1-.45-.45V.45a.45.45,0,0,1,.9,0v3.6A.45.45,0,0,1,13.45,4.5Z" transform="translate(-1.312)"/><path class="a" d="M10.642,12.9H3.45a.45.45,0,0,1,0-.9h7.192a.45.45,0,0,1,0,.9Z" transform="translate(-0.303 -1.211)"/><path class="a" d="M7.945,8.9H3.45a.45.45,0,0,1,0-.9h4.5a.45.45,0,0,1,0,.9Z" transform="translate(-0.303 -0.808)"/><path class="a" d="M11.843,22.729a.449.449,0,0,1-.441-.537l.636-3.178a.447.447,0,0,1,.123-.23l6.993-6.993a1.382,1.382,0,0,1,1.907,0l1.271,1.271a1.35,1.35,0,0,1,0,1.907l-6.993,6.993a.455.455,0,0,1-.229.123l-3.178.636A.494.494,0,0,1,11.843,22.729Zm1.049-3.406-.476,2.383,2.383-.476,6.9-6.9a.45.45,0,0,0,0-.636l-1.271-1.271a.46.46,0,0,0-.636,0Zm2.129,2.321h.009Z" transform="translate(-1.15 -1.152)"/></svg>