<svg xmlns="http://www.w3.org/2000/svg" width="18.869" height="23.103" viewBox="0 0 18.869 23.103"><defs><style>.a{fill:#5dcc96;}</style></defs><g transform="translate(0.001)"><path class="a" d="M18.81,5.164,18.3,3.635a1.423,1.423,0,0,0-1.351-.974H12.662v-1.4A1.266,1.266,0,0,0,11.4,0H7.471A1.267,1.267,0,0,0,6.206,1.265v1.4H1.919a1.423,1.423,0,0,0-1.351.974L.058,5.164A1.145,1.145,0,0,0,1.144,6.671h.533L2.851,21.183A2.1,2.1,0,0,0,4.931,23.1h9.244a2.1,2.1,0,0,0,2.08-1.921L17.429,6.671h.3A1.145,1.145,0,0,0,18.81,5.164ZM7.56,1.354h3.748V2.661H7.56Zm7.346,19.72a.738.738,0,0,1-.731.676H4.931a.738.738,0,0,1-.731-.676L3.035,6.671H16.071ZM1.434,5.317l.418-1.254a.07.07,0,0,1,.067-.048h15.03a.071.071,0,0,1,.067.048l.418,1.254Zm0,0" transform="translate(0)"/><path class="a" d="M268.937,179.13h.036a.677.677,0,0,0,.675-.642l.636-12.2a.677.677,0,1,0-1.352-.07l-.635,12.2A.677.677,0,0,0,268.937,179.13Zm0,0" transform="translate(-256.19 -158.105)"/><path class="a" d="M106.461,178.494a.677.677,0,0,0,.675.64h.038a.677.677,0,0,0,.639-.713l-.666-12.2a.677.677,0,0,0-1.352.074Zm0,0" transform="translate(-101.021 -158.107)"/><path class="a" d="M194.931,179.133a.677.677,0,0,0,.677-.677v-12.2a.677.677,0,0,0-1.354,0v12.2A.677.677,0,0,0,194.931,179.133Zm0,0" transform="translate(-185.489 -158.107)"/></g></svg>