<svg xmlns="http://www.w3.org/2000/svg" width="23.249" height="23.249" viewBox="0 0 23.249 23.249"><defs><style>.a{fill:none;stroke:#39db88;}.b{fill:#5dcc96;}</style></defs><g transform="translate(0.5 0.5)"><path class="a" d="M11.124,0A11.124,11.124,0,1,0,22.249,11.124,11.137,11.137,0,0,0,11.124,0Zm0,0"/><path class="b" d="M130.762,127.771h-2.991v2.991a.7.7,0,0,1-1.408,0v-2.991h-2.991a.7.7,0,0,1,0-1.408h2.991v-2.991a.7.7,0,0,1,1.408,0v2.991h2.991a.7.7,0,0,1,0,1.408Zm0,0" transform="translate(-115.943 -115.943)"/></g></svg>